<?xml version="1.0" encoding="utf-8"?>
<!-- Generator: Adobe Illustrator 24.3.0, SVG Export Plug-In . SVG Version: 6.00 Build 0)  -->
<svg version="1.1" id="Layer_1" xmlns="http://www.w3.org/2000/svg" xmlns:xlink="http://www.w3.org/1999/xlink" x="0px" y="0px"
	 viewBox="0 0 162 108" style="enable-background:new 0 0 162 108;" xml:space="preserve">
<style type="text/css">
	.st0{fill:#E6E6E6;}
	.st1{fill:#39475F;}
	.st2{fill:#61728D;}
	.st3{fill:#181F27;}
	.st4{fill:#1E252E;}
	.st5{fill:#2D394B;}
	.st6{fill:#FC7614;}
	.st7{fill:#FFFFFF;}
	.st8{opacity:0.46;fill:#FFFFFF;enable-background:new    ;}
	.st9{opacity:0.3;fill:#FFFFFF;enable-background:new    ;}
	.st10{fill:#BAD6FA;}
	.st11{fill:#546F8D;}
	.st12{opacity:0.48;fill:#FFFFFF;enable-background:new    ;}
</style>
<g>
	<path class="st0" d="M30,93.7L30,93.7c-0.6,0-1.1-0.1-1.7-0.2c-0.3,0-0.5-0.3-0.5-0.6c0-0.3,0.3-0.5,0.6-0.5l0,0
		c0.5,0.1,1,0.1,1.6,0.2c0.3,0,0.5,0.3,0.5,0.6C30.6,93.5,30.3,93.7,30,93.7L30,93.7L30,93.7z M35.4,93.5c-0.3,0-0.6-0.2-0.6-0.5
		c0-0.3,0.2-0.6,0.5-0.6c0.5-0.1,1-0.2,1.5-0.3c0.3-0.1,0.6,0.1,0.6,0.4c0,0,0,0,0,0c0.1,0.3-0.1,0.6-0.4,0.6
		C36.5,93.3,36,93.4,35.4,93.5C35.5,93.5,35.4,93.5,35.4,93.5z M23.2,92.2c-0.1,0-0.1,0-0.2,0c-0.5-0.2-1-0.4-1.5-0.6
		c-0.3-0.1-0.4-0.5-0.3-0.7c0.1-0.3,0.4-0.4,0.7-0.3c0.5,0.2,1,0.4,1.5,0.6c0.3,0.1,0.4,0.4,0.3,0.7C23.7,92.1,23.5,92.2,23.2,92.2z
		 M42,91.4c-0.3,0-0.5-0.2-0.5-0.5c0-0.2,0.1-0.4,0.3-0.5c0.5-0.2,0.9-0.5,1.4-0.7c0.3-0.1,0.6-0.1,0.7,0.2c0.1,0.3,0.1,0.6-0.2,0.7
		l0,0c-0.5,0.3-1,0.5-1.5,0.8C42.1,91.4,42.1,91.4,42,91.4C42,91.4,42,91.4,42,91.4z M17,89.1c-0.1,0-0.2,0-0.3-0.1
		c-0.5-0.3-0.9-0.6-1.4-0.9c-0.2-0.2-0.3-0.5-0.1-0.7c0.2-0.2,0.5-0.3,0.7-0.1l0,0c0.4,0.3,0.9,0.6,1.3,0.9c0.2,0.2,0.3,0.5,0.2,0.7
		C17.3,89,17.2,89.1,17,89.1L17,89.1z M47.8,87.6c-0.2,0-0.3-0.1-0.4-0.2c-0.2-0.2-0.2-0.6,0.1-0.8l0.1-0.1c0.4-0.3,0.7-0.6,1.1-1
		c0.2-0.2,0.6-0.2,0.8,0c0.2,0.2,0.2,0.6,0,0.8c-0.4,0.3-0.7,0.7-1.1,1l-0.1,0.1C48,87.5,47.9,87.6,47.8,87.6z M11.4,84.9
		c-0.1,0-0.3-0.1-0.4-0.1c-0.4-0.4-0.8-0.7-1.2-1.1c-0.2-0.2-0.2-0.6,0-0.8c0.2-0.2,0.5-0.2,0.7,0c0.4,0.4,0.8,0.7,1.2,1.1
		c0.2,0.2,0.2,0.5,0,0.8c0,0,0,0,0,0C11.7,84.8,11.6,84.9,11.4,84.9L11.4,84.9z M52.7,82.7c-0.3,0-0.5-0.2-0.5-0.5
		c0-0.1,0-0.3,0.1-0.4c0.4-0.4,0.7-0.8,1.1-1.2c0.2-0.2,0.5-0.2,0.8,0c0.2,0.2,0.2,0.5,0,0.8l0,0c-0.4,0.4-0.7,0.8-1.1,1.2
		C53,82.6,52.9,82.6,52.7,82.7L52.7,82.7L52.7,82.7z M6.7,79.7c-0.2,0-0.3-0.1-0.4-0.2c-0.3-0.4-0.7-0.9-1-1.3
		c-0.2-0.2-0.1-0.6,0.1-0.8c0,0,0,0,0,0c0.2-0.2,0.6-0.1,0.7,0.1c0.3,0.4,0.6,0.8,1,1.3c0.2,0.2,0.1,0.6-0.1,0.8
		C7,79.7,6.8,79.7,6.7,79.7L6.7,79.7z M57.3,77.3c-0.3,0-0.5-0.2-0.5-0.5c0-0.1,0-0.2,0.1-0.3c0.3-0.4,0.7-0.8,1-1.3
		c0.2-0.2,0.5-0.3,0.8-0.1c0.2,0.2,0.3,0.5,0.1,0.8l-1,1.3C57.6,77.3,57.5,77.3,57.3,77.3z M2.9,73.9c-0.2,0-0.4-0.1-0.5-0.3
		c-0.3-0.5-0.5-1-0.7-1.5c-0.1-0.3,0-0.6,0.3-0.7c0.1-0.1,0.3-0.1,0.4,0c0.1,0.1,0.2,0.2,0.3,0.3c0.2,0.5,0.4,0.9,0.7,1.4
		c0.1,0.3,0,0.6-0.2,0.7C3.1,73.8,3,73.9,2.9,73.9L2.9,73.9L2.9,73.9z M61.7,71.9c-0.3,0-0.5-0.2-0.5-0.5c0-0.1,0-0.2,0.1-0.3l1-1.3
		c0.2-0.2,0.5-0.3,0.7-0.1s0.3,0.5,0.1,0.7c0,0,0,0,0,0.1l-1,1.3C62,71.8,61.8,71.8,61.7,71.9C61.7,71.8,61.7,71.9,61.7,71.9z
		 M0.7,67.3c-0.3,0-0.5-0.2-0.5-0.5C0.1,66.3,0,65.7,0,65.2c0-0.3,0.2-0.6,0.5-0.6c0.3,0,0.6,0.2,0.6,0.5c0,0,0,0,0,0.1
		c0,0.5,0.1,1,0.1,1.6C1.2,67,1,67.3,0.7,67.3C0.7,67.3,0.7,67.3,0.7,67.3L0.7,67.3L0.7,67.3z M65.9,66.3c-0.3,0-0.5-0.2-0.5-0.5
		c0-0.1,0-0.2,0.1-0.3l1-1.3c0.2-0.2,0.5-0.3,0.8-0.1c0.2,0.2,0.3,0.5,0.1,0.8l0,0l-1,1.3C66.2,66.2,66.1,66.3,65.9,66.3
		C65.9,66.3,65.9,66.3,65.9,66.3z M154.4,63.4c0,0-0.1,0-0.1,0c-0.3-0.1-0.4-0.4-0.4-0.7c0,0,0,0,0,0c0.1-0.5,0.3-1,0.4-1.5
		c0.1-0.3,0.4-0.5,0.7-0.4c0,0,0,0,0,0c0.3,0.1,0.5,0.4,0.4,0.7c0,0,0,0,0,0c-0.1,0.5-0.3,1.1-0.4,1.6
		C154.9,63.2,154.6,63.4,154.4,63.4L154.4,63.4z M70.2,60.8c-0.3,0-0.5-0.2-0.5-0.5c0-0.1,0-0.2,0.1-0.3l1-1.3
		c0.2-0.2,0.5-0.3,0.8-0.1c0.2,0.2,0.3,0.5,0.1,0.8l0,0l-1,1.3C70.5,60.7,70.3,60.7,70.2,60.8L70.2,60.8L70.2,60.8z M1.2,60.4
		c-0.1,0-0.1,0-0.2,0c-0.3-0.1-0.4-0.4-0.4-0.7c0,0,0,0,0,0c0.2-0.5,0.3-1.1,0.5-1.6c0.1-0.3,0.4-0.4,0.7-0.3
		c0.3,0.1,0.4,0.4,0.3,0.7c0,0,0,0,0,0.1c-0.2,0.5-0.4,1-0.5,1.5C1.6,60.2,1.5,60.3,1.2,60.4L1.2,60.4z M156,56.5c0,0-0.1,0-0.1,0
		c-0.3-0.1-0.5-0.3-0.4-0.6c0.1-0.5,0.2-1,0.3-1.6c0-0.3,0.3-0.5,0.6-0.5s0.5,0.3,0.5,0.6c0,0,0,0,0,0.1c-0.1,0.5-0.2,1.1-0.3,1.6
		C156.5,56.4,156.3,56.5,156,56.5L156,56.5z M74.5,55.2c-0.3,0-0.5-0.2-0.5-0.5c0-0.1,0-0.2,0.1-0.3l1-1.3c0.2-0.2,0.5-0.3,0.8-0.1
		c0.2,0.2,0.3,0.5,0.1,0.8l-1,1.3C74.8,55.1,74.6,55.2,74.5,55.2L74.5,55.2L74.5,55.2z M4.4,54.2c-0.3,0-0.5-0.2-0.5-0.5
		c0-0.1,0-0.2,0.1-0.3c0.3-0.4,0.7-0.9,1-1.3c0.2-0.2,0.5-0.3,0.8-0.1C6,52.1,6,52.5,5.8,52.7l0,0c-0.3,0.4-0.7,0.8-1,1.2
		C4.8,54.1,4.6,54.2,4.4,54.2z M78.8,49.7c-0.3,0-0.5-0.2-0.5-0.5c0-0.1,0-0.2,0.1-0.3l1-1.2c0.2-0.2,0.5-0.3,0.8-0.1
		c0.2,0.2,0.3,0.5,0.1,0.8l-1,1.2C79.2,49.7,79,49.7,78.8,49.7z M157,49.6L157,49.6c-0.3,0-0.6-0.3-0.5-0.6c0-0.5,0.1-1.1,0.1-1.6
		c0-0.3,0.2-0.5,0.5-0.5c0,0,0,0,0,0c0.3,0,0.5,0.3,0.5,0.6c0,0.5-0.1,1.1-0.1,1.6C157.5,49.3,157.3,49.6,157,49.6
		C157,49.6,157,49.6,157,49.6z M9.3,49.1c-0.3,0-0.5-0.2-0.5-0.5c0-0.2,0.1-0.3,0.2-0.4c0.8-0.6,1.3-1,1.3-1
		c0.2-0.2,0.6-0.1,0.7,0.2s0.1,0.6-0.2,0.7c0,0-0.5,0.3-1.2,0.9C9.5,49.1,9.4,49.1,9.3,49.1C9.3,49.1,9.3,49.1,9.3,49.1z M83.4,44.4
		c-0.3,0-0.5-0.2-0.5-0.5c0-0.1,0-0.3,0.1-0.3c0.3-0.4,0.7-0.8,1.1-1.2c0.2-0.2,0.5-0.2,0.8,0c0.2,0.2,0.2,0.5,0,0.8
		c-0.4,0.4-0.7,0.8-1.1,1.2C83.7,44.3,83.5,44.4,83.4,44.4L83.4,44.4L83.4,44.4z M157.1,42.6c-0.3,0-0.5-0.2-0.5-0.5
		c0-0.5-0.1-1.1-0.1-1.6c0-0.3,0.2-0.6,0.5-0.6c0.3,0,0.6,0.2,0.6,0.5c0,0,0,0,0,0.1c0,0.5,0.1,1.1,0.1,1.6
		C157.6,42.3,157.4,42.5,157.1,42.6C157.1,42.5,157.1,42.6,157.1,42.6z M88,39.2c-0.3,0-0.5-0.2-0.5-0.5c0-0.1,0.1-0.3,0.1-0.4
		c0.4-0.4,0.7-0.8,1.1-1.2c0.2-0.2,0.5-0.2,0.8,0c0.2,0.2,0.2,0.5,0,0.8L88.5,39C88.3,39.1,88.2,39.2,88,39.2L88,39.2L88,39.2z
		 M156.1,35.7c-0.3,0-0.5-0.2-0.5-0.4c-0.1-0.5-0.3-1-0.4-1.5c-0.1-0.3,0.1-0.6,0.4-0.6c0.3-0.1,0.5,0.1,0.6,0.3
		c0.2,0.5,0.3,1,0.4,1.6c0.1,0.3-0.1,0.6-0.4,0.7c0,0,0,0,0,0L156.1,35.7L156.1,35.7z M92.9,34.2c-0.3,0-0.5-0.2-0.5-0.5
		c0-0.1,0.1-0.3,0.2-0.4l1.2-1.1c0.2-0.2,0.6-0.2,0.8,0c0.2,0.2,0.2,0.6,0,0.8c-0.4,0.4-0.8,0.7-1.2,1.1
		C93.2,34.1,93,34.2,92.9,34.2C92.9,34.2,92.9,34.2,92.9,34.2z M98,29.4c-0.3,0-0.5-0.2-0.5-0.5c0-0.2,0.1-0.3,0.2-0.4l1.2-1.1
		c0.2-0.2,0.6-0.2,0.8,0.1s0.2,0.6-0.1,0.8c-0.4,0.3-0.8,0.7-1.2,1C98.3,29.4,98.2,29.4,98,29.4L98,29.4L98,29.4z M153.2,28.8
		c-0.2-0.5-0.5-0.9-0.8-1.4c-0.2-0.2-0.1-0.6,0.1-0.7s0.6-0.1,0.7,0.1c0,0,0,0,0,0.1c0.3,0.5,0.5,0.9,0.8,1.4c0.1,0.3,0,0.6-0.2,0.7
		c-0.1,0-0.2,0.1-0.3,0.1C153.5,29.1,153.3,29,153.2,28.8z M103.5,25.1c-0.3,0-0.5-0.2-0.5-0.5c0-0.2,0.1-0.3,0.2-0.4
		c0.4-0.3,0.9-0.6,1.3-0.9c0.2-0.2,0.6-0.1,0.7,0.1c0.1,0.1,0.1,0.2,0.1,0.3c0,0.2-0.1,0.4-0.2,0.5l-1.3,0.9
		C103.7,25,103.6,25.1,103.5,25.1C103.5,25.1,103.5,25.1,103.5,25.1z M149.6,23.5c-0.1,0-0.3-0.1-0.4-0.2c-0.4-0.4-0.7-0.7-1.1-1.1
		c-0.2-0.2-0.2-0.5,0-0.8s0.5-0.2,0.8,0l0,0c0.4,0.4,0.8,0.7,1.2,1.1c0.2,0.2,0.2,0.5,0,0.8C149.9,23.4,149.8,23.5,149.6,23.5
		L149.6,23.5L149.6,23.5z M109.4,21.2c-0.3,0-0.5-0.2-0.5-0.5c0-0.2,0.1-0.4,0.3-0.5c0.5-0.3,0.9-0.5,1.4-0.8
		c0.3-0.1,0.6-0.1,0.7,0.2c0,0.1,0.1,0.2,0.1,0.3c0,0.2-0.1,0.4-0.3,0.5c-0.5,0.3-0.9,0.5-1.4,0.8C109.5,21.2,109.4,21.2,109.4,21.2
		L109.4,21.2L109.4,21.2z M144.1,19.3c-0.1,0-0.2,0-0.3-0.1c-0.5-0.2-0.9-0.5-1.4-0.7c-0.3-0.1-0.4-0.4-0.3-0.7s0.4-0.4,0.7-0.3
		c0.5,0.2,1,0.5,1.5,0.7c0.3,0.1,0.4,0.5,0.2,0.7C144.5,19.2,144.3,19.3,144.1,19.3L144.1,19.3z M115.6,18.1c-0.3,0-0.5-0.2-0.5-0.5
		c0-0.2,0.1-0.4,0.3-0.5c0.5-0.2,1-0.4,1.5-0.6c0.3-0.1,0.6,0,0.7,0.3c0.1,0.3,0,0.6-0.3,0.7l0,0c-0.5,0.2-1,0.4-1.5,0.6
		C115.7,18.1,115.6,18.1,115.6,18.1L115.6,18.1L115.6,18.1z M137.6,16.7c-0.1,0-0.1,0-0.2,0c-0.5-0.1-1-0.3-1.5-0.4
		c-0.3-0.1-0.5-0.4-0.4-0.7c0.1-0.3,0.3-0.4,0.6-0.4c0.5,0.1,1.1,0.3,1.6,0.4c0.3,0,0.5,0.3,0.5,0.6C138.2,16.5,138,16.7,137.6,16.7
		L137.6,16.7z M122.2,16.1c-0.3,0-0.5-0.2-0.6-0.5c0-0.3,0.2-0.5,0.4-0.6c0.5-0.1,1.1-0.2,1.6-0.3c0.3,0,0.6,0.2,0.6,0.5
		c0,0.1,0,0.2,0,0.3c-0.1,0.2-0.2,0.3-0.4,0.3c-0.5,0.1-1,0.2-1.6,0.3C122.3,16.1,122.2,16.1,122.2,16.1z M130.7,15.5L130.7,15.5
		c-0.6,0-1.1-0.1-1.6-0.1c-0.3,0-0.5-0.3-0.5-0.6c0-0.3,0.2-0.5,0.5-0.5c0.5,0,1.1,0,1.6,0.1c0.3,0,0.5,0.3,0.5,0.6
		C131.3,15.3,131,15.5,130.7,15.5L130.7,15.5L130.7,15.5z"/>
	<path class="st1" d="M119.8,100.2H58.1L70.3,0.8h55l5.7,7.6L119.8,100.2z"/>
	<path class="st2" d="M113.2,100.2H51.5L63.7,0.8h61.7L113.2,100.2z"/>
	<path class="st3" d="M110.1,81.4H58.6l8.8-71.7h51.6L110.1,81.4z"/>
	<path class="st4" d="M92.7,50.1l14.9,0.2l-0.3,2.3l-14.6-0.3V50.1z"/>
	<path class="st1" d="M51.5,100.2l7.4,6.9l60,0.9l0.9-7.8H51.5z"/>
	<path class="st5" d="M99.1,29.1c0,0,2.6,0.2,3.9,5s0.9,18.4,0.9,18.4l-11.1-0.2C92.8,52.3,87.2,32.2,99.1,29.1z"/>
	<path class="st6" d="M5.4,32.8L45.8,0L67,26.1L26.6,59L5.4,32.8z"/>
	<path class="st7" d="M27.5,21.9L45.6,7.2l3.5,4.3L31,26.2L27.5,21.9z"/>
	<path class="st8" d="M25.3,45.2l5.3-4.3c1.2-1,2.9-0.8,3.9,0.4c0,0,0,0,0,0c1,1.2,0.8,2.9-0.4,3.9l-5.3,4.3c-1.2,1-2.9,0.8-3.9-0.4
		c0,0,0,0,0,0C23.9,47.9,24.1,46.1,25.3,45.2L25.3,45.2z M37.3,35.4l16.9-13.7c1.2-1,2.9-0.8,3.9,0.4c0,0,0,0,0,0
		c1,1.2,0.8,2.9-0.4,3.9L40.8,39.7c-1.2,1-2.9,0.8-3.9-0.4c0,0,0,0,0,0C36,38.1,36.1,36.3,37.3,35.4L37.3,35.4z"/>
	<ellipse class="st9" cx="17.9" cy="33.6" rx="3.7" ry="3.7"/>
	<ellipse class="st9" cx="21.7" cy="30.3" rx="3.7" ry="3.7"/>
	<path class="st10" d="M99.1,29.1c0,0-5.8,2.1-3.8,18.6c1.5,12.1-3.6,28.1-11,28.2c-7.5,0.2-21.2-0.5-21.2-0.5s7.2-18.6,5.7-34.1
		c-0.2-2.2,0-4.4,0.8-6.5c0.9-2.4,2.5-4.8,5.5-5.2C81,28.8,99.1,29.1,99.1,29.1z"/>
	<path class="st11" d="M59,76.6l26.3-0.5c0,0-4-4-4.3-14.2l-36.2,0.5c0.6,2.6,1.6,5.2,2.8,7.5C49.9,74.2,54.2,76.7,59,76.6L59,76.6z
		"/>
	<path class="st5" d="M78.2,14.8l-0.9,6h26.6l0.8-6H78.2z"/>
	<path class="st12" d="M85.5,86.2c-2.9-2.5-7.4-2-9.4,1.2c-0.5,0.8-0.8,1.7-0.8,2.6c0,4,2.7,6.6,8.2,5.5
		C87.7,94.7,89.3,89.5,85.5,86.2L85.5,86.2z"/>
	<ellipse class="st6" cx="147.2" cy="81.5" rx="14.8" ry="14.8"/>
	<path class="st7" d="M73.7,35.7c-0.3,0-0.5-0.2-0.6-0.5c0-0.3,0.2-0.5,0.5-0.6c0.1,0,11.3-0.8,17.4-0.3c0.3,0,0.5,0.3,0.5,0.6
		c0,0.3-0.3,0.5-0.6,0.5C85.1,34.9,73.9,35.7,73.7,35.7L73.7,35.7z M72.8,43c-0.3,0-0.5-0.2-0.6-0.5c0-0.3,0.2-0.5,0.5-0.6l0,0
		c0.1,0,11.3-0.8,17.4-0.3c0.3,0,0.5,0.3,0.5,0.6c0,0.3-0.3,0.5-0.6,0.5l0,0C84.2,42.2,73,43,72.8,43L72.8,43z M72.7,50.6
		c-0.3,0-0.5-0.2-0.6-0.5c0-0.3,0.2-0.5,0.5-0.6c0.1,0,11.3-0.8,17.4-0.3c0.3,0,0.5,0.3,0.5,0.6c0,0.3-0.3,0.5-0.6,0.5
		C84.1,49.8,72.9,50.6,72.7,50.6L72.7,50.6z M72,58.2c-0.3,0-0.5-0.2-0.6-0.5c0-0.3,0.2-0.5,0.5-0.6c0.1,0,11.3-0.8,17.4-0.3
		c0.3,0,0.5,0.3,0.5,0.6c0,0.3-0.3,0.5-0.6,0.5l0,0C83.3,57.3,72.2,58.2,72,58.2L72,58.2z"/>
</g>
</svg>
